#!OML:ASF F:\VICON\USERDATA\INSTALL\rory3\rory3.ASF
:FULLY-SPECIFIED
:DEGREES
644
root 1.62161 16.0816 6.0954 45.6075 35.1311 13.2796
lowerback 45.8635 0.242406 8.56212
upperback 12.6306 4.85952 2.33057
thorax -6.37939 2.55738 -3.83292
lowerneck -15.5255 -12.1005 -16.1476
upperneck 18.5304 -14.8337 11.103
head 10.5946 -6.81785 4.2986
rclavicle -1.55847e-013 -6.27414e-014
rhumerus 46.8536 -12.5831 -73.8239
rradius 24.146
rwrist 31.9718
rhand -54.8642 28.2515
rfingers 7.12502
rthumb -27.2503 0.200157
lclavicle -1.55847e-013 -6.27414e-014
lhumerus -30.7472 -51.095 99.4276
lradius 97.5029
lwrist -14.4475
lhand -50.8311 21.6226
lfingers 7.12502
lthumb -23.3865 50.2217
rfemur -87.5782 -26.7552 28.2103
rtibia 66.7828
rfoot -15.7219 -6.86753
rtoes 3.03971
lfemur -78.2333 -3.16573 -31.7619
ltibia 49.3845
lfoot -3.20262 -19.8854
ltoes 12.2584
645
root 1.61357 16.0501 6.09506 46.1602 35.0686 13.3494
lowerback 45.9187 0.207785 8.8141
upperback 12.7625 4.89952 2.14802
thorax -6.20112 2.60086 -4.16071
lowerneck -15.6225 -12.2135 -15.8265
upperneck 18.2271 -15.066 11.2284
head 10.5209 -6.892 4.24477
rclavicle -2.8625e-014 -3.56818e-014
rhumerus 47.8339 -13.276 -74.1078
rradius 23.7904
rwrist 32.4269
rhand -54.8901 28.2959
rfingers 7.12502
rthumb -27.275 0.248438
lclavicle -2.8625e-014 -3.56818e-014
lhumerus -30.8554 -51.4111 99.165
lradius 97.892
lwrist -14.7749
lhand -51.5264 20.6443
lfingers 7.12502
lthumb -24.0534 49.1569
rfemur -88.483 -26.6922 28.5314
rtibia 67.0988
rfoot -15.6385 -6.67695
rtoes 3.41238
lfemur -78.9954 -3.20834 -31.8876
ltibia 49.6745
lfoot -3.25755 -19.9121
ltoes 12.1714
646
root 1.60504 16.0201 6.09863 46.6714 34.9944 13.3741
lowerback 45.9525 0.225256 9.04262
upperback 12.8956 4.99164 2.01226
thorax -6.01646 2.6663 -4.44697
lowerneck -15.5664 -12.329 -15.6259
upperneck 17.8278 -15.3085 11.4592
head 10.4067 -6.9766 4.25117
rclavicle -2.54444e-014 -3.22031e-014
rhumerus 48.7912 -13.9938 -74.3307
rradius 23.3966
rwrist 32.6639
rhand -54.8424 28.0212
rfingers 7.12502
rthumb -27.2295 -0.0334676
lclavicle -2.54444e-014 -3.22031e-014
lhumerus -30.9732 -51.7017 98.9646
lradius 98.3507
lwrist -15.1134
lhand -51.893 20.0337
lfingers 7.12502
lthumb -24.4049 48.4994
rfemur -89.3389 -26.6133 28.9024
rtibia 67.4345
rfoot -15.6322 -6.59325
rtoes 2.42851
lfemur -79.7375 -3.18709 -32.0043
ltibia 49.9629
lfoot -3.38185 -19.9987
ltoes 12.0578
647
root 1.59772 15.9861 6.10013 47.2343 34.9378 13.4427
lowerback 46.0302 0.214221 9.30677
upperback 12.97 5.07093 1.8618
thorax -5.90448 2.72154 -4.76473
lowerneck -15.6288 -12.4133 -15.3082
upperneck 17.6204 -15.4805 11.4687
head 10.3419 -7.03571 4.17061
rclavicle -8.5875e-014 3.95581e-014
rhumerus 49.6244 -14.8332 -74.7356
rradius 23.193
rwrist 33.2001
rhand -54.6667 27.352
rfingers 7.12502
rthumb -27.0613 -0.728875
lclavicle -8.5875e-014 3.95581e-014
lhumerus -31.0954 -51.9265 98.7317
lradius 98.8601
lwrist -15.8613
lhand -52.1471 21.9163
lfingers 7.12502
lthumb -24.6485 50.349
rfemur -90.2729 -26.601 29.278
rtibia 67.7718
rfoot -15.7753 -6.63568
rtoes 1.47852
lfemur -80.5143 -3.21679 -32.1449
ltibia 50.2463
lfoot -3.46746 -20.0944
ltoes 11.8121
648
root 1.59301 15.9531 6.09966 47.7865 34.9723 13.5248
lowerback 46.1519 0.144745 9.61465
upperback 13.0096 5.11256 1.73352
thorax -5.843 2.75614 -5.06762
lowerneck -15.7295 -12.4819 -14.8894
upperneck 17.4844 -15.6005 11.239
head 10.2696 -7.08556 3.99945
rclavicle -8.26944e-014 8.78628e-014
rhumerus 50.4535 -15.6397 -75.292
rradius 23.0016
rwrist 33.9398
rhand -54.522 27.0782
rfingers 7.12502
rthumb -26.9229 -1.02415
lclavicle -8.26944e-014 8.78628e-014
lhumerus -31.3307 -52.0381 98.6061
lradius 99.2399
lwrist -16.4995
lhand -52.3395 22.0764
lfingers 7.12502
lthumb -24.8329 50.4837
rfemur -91.2364 -26.6994 29.7628
rtibia 68.0831
rfoot -16.0008 -6.58249
rtoes 1.26662
lfemur -81.2591 -3.31873 -32.2409
ltibia 50.5269
lfoot -3.45598 -20.1761
ltoes 11.6919
649
root 1.58811 15.9293 6.10163 48.3546 34.9675 13.636
lowerback 46.232 0.112561 9.8203
upperback 13.0593 5.15038 1.61101
thorax -5.77087 2.7883 -5.31197
lowerneck -15.7062 -12.5447 -14.5394
upperneck 17.2089 -15.7337 11.1466
head 10.1456 -7.14097 3.89106
rclavicle -6.36111e-015 -5.96354e-016
rhumerus 51.4821 -16.406 -75.9596
rradius 22.5296
rwrist 34.6683
rhand -54.6221 27.2295
rfingers 7.12502
rthumb -27.0186 -0.858007
lclavicle -6.36111e-015 -5.96354e-016
lhumerus -31.6259 -52.1737 98.5383
lradius 99.5963
lwrist -16.7498
lhand -52.3424 18.8506
lfingers 7.12502
lthumb -24.8357 47.2576
rfemur -92.1282 -26.7723 30.1726
rtibia 68.3419
rfoot -16.1408 -6.32265
rtoes 1.7246
lfemur -81.9442 -3.417 -32.3623
ltibia 50.7592
lfoot -3.34473 -20.3048
ltoes 12.1268
650
root 1.58031 15.9089 6.10476 48.8386 34.9466 13.6785
lowerback 46.381 0.103745 9.99937
upperback 13.1083 5.20849 1.46624
thorax -5.71451 2.82931 -5.57652
lowerneck -15.6815 -12.6148 -14.2028
upperneck 16.8418 -15.923 11.2979
head 10.0217 -7.20318 3.86004
rclavicle -2.22639e-014 -4.77083e-014
rhumerus 52.2687 -16.8724 -76.0814
rradius 22.2291
rwrist 34.67
rhand -54.68 27.464
rfingers 7.12502
rthumb -27.074 -0.614945
lclavicle -2.22639e-014 -4.77083e-014
lhumerus -31.8724 -52.3381 98.3606
lradius 100.053
lwrist -16.9988
lhand -52.2373 16.4146
lfingers 7.12502
lthumb -24.735 44.8354
rfemur -92.9384 -26.7695 30.5985
rtibia 68.5702
rfoot -16.1815 -6.11903
rtoes 1.94713
lfemur -82.5624 -3.43793 -32.4418
ltibia 50.9447
lfoot -3.13518 -20.4242
ltoes 13.0726
651
root 1.5722 15.893 6.11054 49.2093 34.9826 13.7005
lowerback 46.598 0.069142 10.1937
upperback 13.2088 5.25542 1.34536
thorax -5.61743 2.87077 -5.81662
lowerneck -15.8091 -12.6737 -13.7773
upperneck 16.5121 -16.0961 11.4157
head 9.92539 -7.2512 3.80015
rclavicle -7.63333e-014 -2.54444e-014
rhumerus 52.9767 -17.2602 -76.0386
rradius 22.1488
rwrist 34.4382
rhand -54.6285 27.3243
rfingers 7.12502
rthumb -27.0248 -0.762268
lclavicle -7.63333e-014 -2.54444e-014
lhumerus -31.8798 -52.4696 97.9917
lradius 100.509
lwrist -17.3441
lhand -52.2738 15.8745
lfingers 7.12502
lthumb -24.7699 44.2905
rfemur -93.6099 -26.802 31.0274
rtibia 68.7945
rfoot -16.2127 -5.98068
rtoes 2.25387
lfemur -83.0378 -3.44714 -32.4903
ltibia 51.0787
lfoot -3.07275 -20.5538
ltoes 13.6127
652
root 1.56413 15.8753 6.11518 49.6196 35.1149 13.8538
lowerback 47.7391 -0.188964 10.5607
upperback 12.363 5.28764 0.925591
thorax -5.52286 2.89711 -5.99759
lowerneck -15.9761 -12.7156 -13.3479
upperneck 16.3266 -16.2302 11.4361
head 9.87155 -7.28542 3.71159
rclavicle -9.22361e-014 -2.0276e-014
rhumerus 53.7187 -17.8216 -76.3032
rradius 22.0869
rwrist 34.7241
rhand -54.6633 27.0929
rfingers 7.12502
rthumb -27.0581 -0.988432
lclavicle -9.22361e-014 -2.0276e-014
lhumerus -31.9269 -52.6039 97.6792
lradius 100.954
lwrist -17.7491
lhand -52.4324 16.0346
lfingers 7.12502
lthumb -24.9219 44.4297
rfemur -94.2185 -26.9552 31.3648
rtibia 69.0231
rfoot -16.2799 -5.89558
rtoes 2.45435
lfemur -83.4499 -3.62683 -32.5202
ltibia 51.1986
lfoot -3.16694 -20.6062
ltoes 13.2547
